# xmcd CD database file
#
# Track frame offsets:
# 150
# 19284
# 37141
# 62248
# 73738
# 95195
# 112209
# 130944
# 150571
# 192578
# 237248
# 266745
# 287937
# 302107
#
# Disc length: 4389 seconds
#
# Revision: 0
# Processed by: cddbd v1.4b41PL1 Copyright (c) Steve Scherf et al.
# Submitted via: jack 2.2.0
#
DISCID=e211230e
DTITLE=Van Morrison - Wild Night
DYEAR=1900
DGENRE=
TTITLE0=I've Been Working
TTITLE1=Young Lovers Do
TTITLE2=Purple Heather
TTITLE3=Come Running
TTITLE4=Sweet Thing
TTITLE5=Blue Money
TTITLE6=Green
TTITLE7=Wild Night
TTITLE8=Caravan
TTITLE9=Cypress Avenue
TTITLE10=It's Not The Twilight Zone
TTITLE11=Foggy Mountain Top
TTITLE12=Heathrow Shuffle
TTITLE13=Naked In the Jungle
EXTD=This is a bootleg!
EXTT0=Stated as being recorded live in Los Angeles May 26,1973
EXTT1=
EXTT2=
EXTT3=
EXTT4=
EXTT5=
EXTT6=
EXTT7=
EXTT8=
EXTT9=
EXTT10=
EXTT11=
EXTT12=
EXTT13=
PLAYORDER=
